<svg width="34" height="30" viewBox="0 0 34 30" fill="none" xmlns="http://www.w3.org/2000/svg">
    <path d="M22.4805 29.9707H27.9405C30.9005 29.9707 33.3005 27.5707 33.3005 24.6107V23.9707H22.4805V29.9707Z" fill="#FFB55B"/>
    <path d="M33.3005 15.9414H22.4805V22.0614H33.3005V15.9414Z" fill="#FFB55B"/>
    <path d="M33.3005 7.91016H22.4805V14.0302H33.3005V7.91016Z" fill="#FFB55B"/>
    <path d="M27.9302 0H12.9502V29.97H20.5702V6.00999H33.3002V5.37C33.3002 2.41 30.9002 0.00999451 27.9402 0.00999451L27.9302 0Z" fill="#FFB55B"/>
    <path d="M0 24.6009C0 27.5709 2.4 29.9609 5.36 29.9609H11.04V23.9609H0V24.6009Z" fill="#FFB55B"/>
    <path d="M11.04 15.9414H0V22.0614H11.04V15.9414Z" fill="#FFB55B"/>
    <path d="M11.04 7.91016H0V14.0302H11.04V7.91016Z" fill="#FFB55B"/>
    <path d="M0 5.37V6.00999H11.04V0H5.36C2.4 0 0 2.4 0 5.36V5.37Z" fill="#FFB55B"/>
</svg>
