<?xml version="1.0" encoding="UTF-8" standalone="no"?>
<!DOCTYPE svg PUBLIC "-//W3C//DTD SVG 1.1//EN" "http://www.w3.org/Graphics/SVG/1.1/DTD/svg11.dtd">
<svg width="100%" height="100%" viewBox="0 0 152 48" version="1.1" xmlns="http://www.w3.org/2000/svg" xmlns:xlink="http://www.w3.org/1999/xlink" xml:space="preserve" xmlns:serif="http://www.serif.com/" style="fill-rule:evenodd;clip-rule:evenodd;stroke-linejoin:round;stroke-miterlimit:2;">
    <g transform="matrix(1.54187,0,0,1.54187,12.6658,6.65412)">
        <g transform="matrix(12,0,0,12,21.0294,14.5204)">
            <path d="M0.07,-0L0.07,-0.7L0.401,-0.7C0.478,-0.7 0.546,-0.686 0.605,-0.657C0.664,-0.628 0.71,-0.588 0.743,-0.536C0.776,-0.484 0.792,-0.422 0.792,-0.35C0.792,-0.279 0.776,-0.217 0.743,-0.165C0.71,-0.112 0.664,-0.072 0.605,-0.043C0.546,-0.014 0.478,-0 0.401,-0L0.07,-0ZM0.268,-0.158L0.393,-0.158C0.433,-0.158 0.468,-0.166 0.498,-0.181C0.527,-0.196 0.55,-0.218 0.567,-0.247C0.584,-0.276 0.592,-0.31 0.592,-0.35C0.592,-0.391 0.584,-0.425 0.567,-0.454C0.55,-0.483 0.527,-0.505 0.498,-0.52C0.468,-0.535 0.433,-0.542 0.393,-0.542L0.268,-0.542L0.268,-0.158Z" style="fill:rgb(149,166,225);fill-rule:nonzero;"/>
        </g>
        <g transform="matrix(12,0,0,12,30.9414,14.5204)">
            <path d="M0.345,0.009C0.281,0.009 0.225,-0.003 0.178,-0.028C0.13,-0.052 0.093,-0.085 0.067,-0.128C0.04,-0.17 0.027,-0.218 0.027,-0.272C0.027,-0.326 0.04,-0.374 0.066,-0.417C0.091,-0.459 0.127,-0.492 0.172,-0.516C0.217,-0.539 0.268,-0.551 0.325,-0.551C0.378,-0.551 0.427,-0.54 0.471,-0.519C0.515,-0.497 0.55,-0.465 0.576,-0.423C0.602,-0.381 0.615,-0.33 0.615,-0.27C0.615,-0.263 0.615,-0.256 0.614,-0.247C0.613,-0.238 0.613,-0.23 0.612,-0.223L0.183,-0.223L0.183,-0.323L0.511,-0.323L0.439,-0.295C0.44,-0.32 0.435,-0.341 0.426,-0.359C0.416,-0.377 0.403,-0.391 0.386,-0.401C0.369,-0.411 0.349,-0.416 0.326,-0.416C0.303,-0.416 0.284,-0.411 0.267,-0.401C0.249,-0.391 0.236,-0.377 0.227,-0.359C0.218,-0.34 0.213,-0.319 0.213,-0.294L0.213,-0.265C0.213,-0.238 0.219,-0.215 0.23,-0.196C0.241,-0.177 0.256,-0.162 0.277,-0.152C0.298,-0.141 0.322,-0.136 0.351,-0.136C0.378,-0.136 0.401,-0.14 0.42,-0.148C0.439,-0.155 0.457,-0.167 0.476,-0.183L0.576,-0.079C0.55,-0.05 0.518,-0.029 0.48,-0.014C0.442,0.002 0.397,0.009 0.345,0.009Z" style="fill:rgb(149,166,225);fill-rule:nonzero;"/>
        </g>
        <g transform="matrix(12,0,0,12,38.6454,14.5204)">
            <path d="M0.402,0.009C0.356,0.009 0.317,-0.001 0.284,-0.022C0.251,-0.042 0.227,-0.073 0.21,-0.114C0.193,-0.155 0.184,-0.207 0.184,-0.271C0.184,-0.336 0.192,-0.389 0.208,-0.43C0.224,-0.47 0.248,-0.501 0.281,-0.521C0.313,-0.541 0.353,-0.551 0.402,-0.551C0.451,-0.551 0.496,-0.54 0.537,-0.517C0.577,-0.494 0.609,-0.461 0.633,-0.42C0.656,-0.378 0.668,-0.328 0.668,-0.271C0.668,-0.214 0.656,-0.164 0.633,-0.122C0.609,-0.08 0.577,-0.048 0.537,-0.025C0.496,-0.002 0.451,0.009 0.402,0.009ZM0.061,0.194L0.061,-0.542L0.242,-0.542L0.242,-0.45L0.241,-0.271L0.251,-0.091L0.251,0.194L0.061,0.194ZM0.362,-0.142C0.383,-0.142 0.403,-0.147 0.42,-0.157C0.436,-0.167 0.45,-0.182 0.461,-0.201C0.471,-0.22 0.476,-0.244 0.476,-0.271C0.476,-0.298 0.471,-0.322 0.461,-0.341C0.45,-0.36 0.436,-0.375 0.42,-0.385C0.403,-0.395 0.383,-0.4 0.362,-0.4C0.341,-0.4 0.322,-0.395 0.305,-0.385C0.288,-0.375 0.274,-0.36 0.264,-0.341C0.253,-0.322 0.248,-0.298 0.248,-0.271C0.248,-0.244 0.253,-0.22 0.264,-0.201C0.274,-0.182 0.288,-0.167 0.305,-0.157C0.322,-0.147 0.341,-0.142 0.362,-0.142Z" style="fill:rgb(149,166,225);fill-rule:nonzero;"/>
        </g>
        <g transform="matrix(12,0,0,12,46.9854,14.5204)">
            <path d="M0.061,-0L0.061,-0.742L0.251,-0.742L0.251,-0.388L0.207,-0.433C0.228,-0.472 0.256,-0.502 0.292,-0.522C0.328,-0.541 0.369,-0.551 0.414,-0.551C0.456,-0.551 0.494,-0.543 0.528,-0.526C0.562,-0.509 0.589,-0.482 0.609,-0.447C0.628,-0.412 0.638,-0.366 0.638,-0.31L0.638,-0L0.448,-0L0.448,-0.279C0.448,-0.318 0.44,-0.346 0.425,-0.364C0.409,-0.381 0.387,-0.39 0.359,-0.39C0.339,-0.39 0.321,-0.386 0.304,-0.377C0.287,-0.368 0.274,-0.354 0.265,-0.335C0.256,-0.316 0.251,-0.292 0.251,-0.262L0.251,-0L0.061,-0Z" style="fill:rgb(149,166,225);fill-rule:nonzero;"/>
        </g>
        <g transform="matrix(12,0,0,12,55.4214,14.5204)">
            <path d="M0.333,0.009C0.274,0.009 0.221,-0.003 0.175,-0.027C0.129,-0.051 0.093,-0.084 0.067,-0.127C0.04,-0.169 0.027,-0.217 0.027,-0.272C0.027,-0.327 0.04,-0.375 0.067,-0.417C0.093,-0.459 0.129,-0.492 0.175,-0.516C0.221,-0.539 0.274,-0.551 0.333,-0.551C0.392,-0.551 0.445,-0.539 0.492,-0.516C0.538,-0.492 0.574,-0.459 0.6,-0.417C0.626,-0.375 0.639,-0.327 0.639,-0.272C0.639,-0.217 0.626,-0.169 0.6,-0.127C0.574,-0.084 0.538,-0.051 0.492,-0.027C0.445,-0.003 0.392,0.009 0.333,0.009ZM0.333,-0.142C0.355,-0.142 0.375,-0.147 0.392,-0.157C0.409,-0.167 0.422,-0.182 0.432,-0.202C0.442,-0.221 0.447,-0.245 0.447,-0.272C0.447,-0.299 0.442,-0.323 0.432,-0.342C0.422,-0.361 0.409,-0.375 0.392,-0.385C0.375,-0.395 0.355,-0.4 0.333,-0.4C0.312,-0.4 0.293,-0.395 0.276,-0.385C0.259,-0.375 0.245,-0.361 0.235,-0.342C0.224,-0.323 0.219,-0.299 0.219,-0.272C0.219,-0.245 0.224,-0.221 0.235,-0.202C0.245,-0.182 0.259,-0.167 0.276,-0.157C0.293,-0.147 0.312,-0.142 0.333,-0.142Z" style="fill:rgb(149,166,225);fill-rule:nonzero;"/>
        </g>
        <g transform="matrix(12,0,0,12,63.4134,14.5204)">
            <path d="M0.247,-0.155L0.236,-0.377L0.537,-0.7L0.755,-0.7L0.455,-0.375L0.345,-0.26L0.247,-0.155ZM0.07,-0L0.07,-0.7L0.266,-0.7L0.266,-0L0.07,-0ZM0.54,-0L0.312,-0.289L0.441,-0.427L0.77,-0L0.54,-0Z" style="fill:rgb(149,166,225);fill-rule:nonzero;"/>
        </g>
        <g transform="matrix(12,0,0,12,72.1854,14.5204)">
            <path d="M0.345,0.009C0.281,0.009 0.225,-0.003 0.178,-0.028C0.13,-0.052 0.093,-0.085 0.067,-0.128C0.04,-0.17 0.027,-0.218 0.027,-0.272C0.027,-0.326 0.04,-0.374 0.066,-0.417C0.091,-0.459 0.127,-0.492 0.172,-0.516C0.217,-0.539 0.268,-0.551 0.325,-0.551C0.378,-0.551 0.427,-0.54 0.471,-0.519C0.515,-0.497 0.55,-0.465 0.576,-0.423C0.602,-0.381 0.615,-0.33 0.615,-0.27C0.615,-0.263 0.615,-0.256 0.614,-0.247C0.613,-0.238 0.613,-0.23 0.612,-0.223L0.183,-0.223L0.183,-0.323L0.511,-0.323L0.439,-0.295C0.44,-0.32 0.435,-0.341 0.426,-0.359C0.416,-0.377 0.403,-0.391 0.386,-0.401C0.369,-0.411 0.349,-0.416 0.326,-0.416C0.303,-0.416 0.284,-0.411 0.267,-0.401C0.249,-0.391 0.236,-0.377 0.227,-0.359C0.218,-0.34 0.213,-0.319 0.213,-0.294L0.213,-0.265C0.213,-0.238 0.219,-0.215 0.23,-0.196C0.241,-0.177 0.256,-0.162 0.277,-0.152C0.298,-0.141 0.322,-0.136 0.351,-0.136C0.378,-0.136 0.401,-0.14 0.42,-0.148C0.439,-0.155 0.457,-0.167 0.476,-0.183L0.576,-0.079C0.55,-0.05 0.518,-0.029 0.48,-0.014C0.442,0.002 0.397,0.009 0.345,0.009Z" style="fill:rgb(149,166,225);fill-rule:nonzero;"/>
        </g>
        <g transform="matrix(12,0,0,12,79.8894,14.5204)">
            <path d="M0.154,0.203C0.125,0.203 0.096,0.199 0.068,0.19C0.039,0.181 0.015,0.169 -0.003,0.154L0.063,0.021C0.074,0.031 0.088,0.039 0.103,0.045C0.118,0.05 0.132,0.053 0.147,0.053C0.168,0.053 0.184,0.048 0.196,0.039C0.208,0.03 0.218,0.015 0.227,-0.005L0.252,-0.068L0.267,-0.087L0.451,-0.542L0.632,-0.542L0.398,0.022C0.379,0.069 0.358,0.105 0.334,0.132C0.309,0.158 0.282,0.176 0.253,0.187C0.223,0.198 0.19,0.203 0.154,0.203ZM0.228,0.023L-0.011,-0.542L0.184,-0.542L0.36,-0.104L0.228,0.023Z" style="fill:rgb(149,166,225);fill-rule:nonzero;"/>
        </g>
    </g>
    <g id="logotype">
        <g>
            <g transform="matrix(0.707107,0.707107,-0.707107,0.707107,23.0296,-8.82311)">
                <path d="M11.029,34.523L33.301,34.523L15.431,16.654L15.431,30.121L25.431,30.121L22.602,27.245L18.308,27.245L18.308,21.386L28.899,31.865L13.688,31.865L13.688,14.91L11.029,12.252L11.029,34.523Z" style="fill:rgb(149,166,225);"/>
            </g>
            <g transform="matrix(-0.707107,0.707107,0.707107,0.707107,21.3009,-8.82311)">
                <path d="M11.029,34.523L33.301,34.523L15.431,16.654L15.431,30.121L25.431,30.121L22.602,27.245L18.308,27.245L18.308,21.386L28.899,31.865L13.688,31.865L13.688,14.91L11.029,12.252L11.029,34.523Z" style="fill:rgb(203,212,244);"/>
            </g>
            <g transform="matrix(2.49735,2.49735,-2.49735,2.49735,24.7826,-90.374)">
                <path d="M26.022,19.53L26.022,27.07L18.482,27.07L18.482,19.53L26.022,19.53ZM25.8,19.753L18.705,19.753L18.705,26.848L25.8,26.848L25.8,19.753Z" style="fill:rgb(72,96,181);"/>
            </g>
        </g>
    </g>
</svg>
